<svg xmlns="http://www.w3.org/2000/svg" width="24" height="24" viewBox="0 0 24 24">
    <g fill="none" fill-rule="evenodd">
        <path d="M0 0h24v24H0z"/>
        <g fill-rule="nonzero">
            <path fill="#FBBB00" d="M8.938 13.047l-.383 1.43-1.4.03A5.475 5.475 0 0 1 6.5 11.9c0-.912.222-1.772.615-2.53l1.246.229.546 1.238a3.27 3.27 0 0 0 .03 2.21z"/>
            <path fill="#518EF8" d="M17.404 10.873a5.506 5.506 0 0 1-1.96 5.316h-.001l-1.57-.08-.221-1.387a3.278 3.278 0 0 0 1.41-1.674H12.12v-2.175H17.404z"/>
            <path fill="#28B446" d="M15.443 16.189a5.5 5.5 0 0 1-8.288-1.683l1.783-1.459a3.27 3.27 0 0 0 4.714 1.675l1.79 1.467z"/>
            <path fill="#F14336" d="M15.51 7.666L13.73 9.125a3.271 3.271 0 0 0-4.822 1.713L7.115 9.37a5.499 5.499 0 0 1 8.396-1.705z"/>
        </g>
    </g>
</svg>
